<svg xmlns="http://www.w3.org/2000/svg" viewBox="0 0 133.86 185.05"><defs><style>.cls-1{fill:#303c56;}.cls-2{fill:#331b00;}.cls-3{fill:#ffb962;}.cls-4{fill:#ea800c;}.cls-5{fill:#1d556d;}.cls-6,.cls-7{fill:#f6585f;}.cls-6{opacity:0.3;}.cls-7{opacity:0.8;}.cls-10,.cls-18,.cls-19,.cls-20,.cls-8{fill:none;stroke-miterlimit:10;}.cls-8{stroke:#f6585f;}.cls-9{fill:#332e2d;}.cls-10{stroke:#331b00;}.cls-10,.cls-18,.cls-19,.cls-20{stroke-linecap:round;}.cls-11{fill:#eaa363;}.cls-12{fill:#414141;}.cls-13{fill:#cb825a;}.cls-14{fill:#cc835b;}.cls-15{fill:#822b34;}.cls-16{fill:#7ae9f4;}.cls-17{fill:#e59167;opacity:0.5;}.cls-18{stroke:#414141;}.cls-19{stroke:#b27054;}.cls-20{stroke:#2b2b2b;}</style></defs><title>community_belonging</title><g id="Mat"><polygon class="cls-1" points="6.72 161.94 125.86 161.94 133.86 185.05 0 185.05 6.72 161.94"/></g><g id="Girl_1" data-name="Girl 1"><g id="Hair"><path class="cls-2" d="M109.79,62.57s1.73,15.79,1.37,24.46,3.15,18.22-8,21.11-21.38-2.64-22.76-5.78-1.26-21.75-1-26.66,1.49-12.55,1.49-12.55l29-.58L111.16,87" transform="translate(-56.26 -17.47)"/><path class="cls-2" d="M105.61,41.24s4.68-3.14,7.32.51a4.43,4.43,0,0,1-2.51,7S111.13,58,108.31,60s-.36-.21-.36-.21V58.12s-5.87-5.18-7.55-12.22h0s-4.11,9.73-17.8,13.85h0s-.07-.61-1.58-.13l0-.13s-.63-9.07.38-10.33c0,0-5.91-2.89-3.52-7.29s7.92-1.26,7.92-.38S91.89,35.83,105.61,41.24Z" transform="translate(-56.26 -17.47)"/></g><g id="Skin"><path class="cls-3" d="M100.42,46.11c1.72,6.4,7.53,12,7.53,12v1.63s1.92-1.6,1.92,1.61S108.59,63.6,108,63c0,0-1.28,9.95-10,9.63V75.8s6.74-2.57,13.16,11.23,5.13,16,5.13,16-.32,1.93-3.53,1.28-14.12-1.92-15.4-1.92-2.24-2.25-2.24-2.89V90.88s1.6-1.61,2.56,6.42l12.52.64-4.5-9.63L86.77,84.46S81,95.69,80.36,97.94l12.19-.32s1.17-6.5,2.41-6.85.88,1,.88,1,1.2,10-2.65,10.36S76.83,105,75.86,104.68,73,104,74.26,99.86s6.1-15.4,7.7-17.65,4.49-6.41,10.27-6.41V72.59s-8.35.32-9.63-9.31c0,0-2.24,1-2.24-1.6s1.82-2.87,2.24-1.93a18.45,18.45,0,0,0,3.47-1.23C97.2,53.52,100.42,46.11,100.42,46.11Z" transform="translate(-56.26 -17.47)"/><path class="cls-3" d="M76.34,147.83l-.64,6.42,14.55-.13a2.2,2.2,0,0,1,1.68.73A9.38,9.38,0,0,1,94,161.31s-.32,3.85,0,4.17,2.25-17.65,2.25-17.65Z" transform="translate(-56.26 -17.47)"/><path class="cls-3" d="M94.31,167.73h6.74s-4.64,17.6-3.71,24.46A2.1,2.1,0,0,0,98,193.4c.76.71,2.54,1.87,6.61,2.88,0,0,1.28,1-1.28,1-2.27,0-8.82.25-11.41-.58a.9.9,0,0,1-.58-1.07c.4-1.46,1.24-5.49,1.72-14.4C93.67,169.33,94.31,167.73,94.31,167.73Z" transform="translate(-56.26 -17.47)"/></g><g id="Clothing"><path class="cls-4" d="M87.25,77a5,5,0,0,1,2.57-1s0,7.28,4.49,7.6,6.42-2.5,6.1-8c0,0,2.2.36,2.94,1.15.49.52-1,5.2,0,6.81s2.24,4.17,2.24,4.17,1,6.74-4.17,9v.65l-3.61,0s-.71-4.93-1.68-6.29c-.68-.94-1.49-.29-1.81.35s-1.72,6.07-1.72,6.07L89,97.71a1.26,1.26,0,0,0-.3-1.38c-.64-.64-4.82-3.21-4.17-7.7,0,0,2.56-4.17,2.56-5.45S87.25,77,87.25,77Z" transform="translate(-56.26 -17.47)"/><path class="cls-4" d="M106.37,120.3s-15.13,2.09-22.4,0c0,0,4.66-14.69,4.63-17.55,0,0,4.3-.69,4.76-.66s1.51-.73,1.92-1.85a3.92,3.92,0,0,0,1.82,2.16s3.05.26,4.41.42C101.51,102.82,105.88,116.4,106.37,120.3Z" transform="translate(-56.26 -17.47)"/><path class="cls-5" d="M84,120.3s15.47,1.22,22.36-.27c0,0,2.49,17.15,0,29.4,0,0-1.68,12.78-4.17,18.3H93.82s2.47-17.55,2.42-22.49.08-15.47-.53-17-2.38-1.18-4.61.75S79.85,137.29,75,145.77c0,0,.1,1.73,1.45,1.73l-.77,7.84S63.09,156,63,150.61s8.79-17.08,12.72-21.27S84,120.3,84,120.3Z" transform="translate(-56.26 -17.47)"/></g><g id="Face"><path class="cls-6" d="M87.13,64.11s-2.3,0-2.36,1.1,1.87,1.37,2.36,1.32,2.81.17,3-1.21S87.13,64.11,87.13,64.11Z" transform="translate(-56.26 -17.47)"/><path class="cls-6" d="M103.15,64.11s-2.31,0-2.36,1.1,1.86,1.37,2.36,1.32,2.8.17,3-1.21S103.15,64.11,103.15,64.11Z" transform="translate(-56.26 -17.47)"/><path class="cls-7" d="M95,53.78a5.35,5.35,0,0,0-1,2.31,1,1,0,0,0,1,1s1.27-.06,1.32-1S95.14,54.38,95,53.78Z" transform="translate(-56.26 -17.47)"/><path class="cls-8" d="M111.82,88.46c.36-.15,2.61.41-.8,2.07-3.16,1.53-5.57.32-4.39-.23" transform="translate(-56.26 -17.47)"/><path class="cls-8" d="M112.48,89.88c.37-.16,2.62.41-.8,2.07-3.16,1.53-5.56.32-4.39-.23" transform="translate(-56.26 -17.47)"/><path class="cls-8" d="M113.09,91.3c.36-.16,2.59.41-.79,2.06-3.12,1.53-5.5.33-4.34-.22" transform="translate(-56.26 -17.47)"/><path class="cls-9" d="M104.8,59.39s-3.07,3.06-6.36,1c0,0-.77-.9,0-.48S104.8,59.39,104.8,59.39Z" transform="translate(-56.26 -17.47)"/><path class="cls-10" d="M98,56.63s3.81-2.05,6.79.12" transform="translate(-56.26 -17.47)"/><path class="cls-10" d="M92.35,56.82s-3.8-2-6.79.12" transform="translate(-56.26 -17.47)"/><path class="cls-10" d="M95.21,69.36a5.11,5.11,0,0,0,3.09-.74" transform="translate(-56.26 -17.47)"/><path class="cls-9" d="M85.69,59.4s3,3,6.32.94c0,0,.77-.89,0-.47S85.69,59.4,85.69,59.4Z" transform="translate(-56.26 -17.47)"/><path class="cls-11" d="M94.09,66s-.19.7.92.72,1.15-.32,1.1-.74S94.15,65.34,94.09,66Z" transform="translate(-56.26 -17.47)"/></g></g><g id="Girl_2" data-name="Girl 2"><g id="Hair-2" data-name="Hair"><path class="cls-12" d="M136,64.1a6.26,6.26,0,0,1,1.58-3.46l.54-1.93s-1-12.2,2.2-15.12,6.32-5.71,13.13-5.23,8.64,1,10.46,3.17,4.75,5.71,2.07,16.54c0,0,1.22.88,3.53,5s-9.49,16.65-9.49,16.65H144.24L136,66.53Z" transform="translate(-56.26 -17.47)"/></g><g id="Skin-2" data-name="Skin"><path class="cls-13" d="M144.48,76.19s-8.63-9.36-12.65-20.73a2.51,2.51,0,0,1,.32-2,67.24,67.24,0,0,1,8.34-10.64c4.47-4.43,11-9.85,11-9.85a1.86,1.86,0,0,0,.66-1.65s.28-.66.42,0,0,1.28.8,1.75,6.45,5.41,6.45,5.41a48.06,48.06,0,0,1,9,9.33L173,53.43a1.9,1.9,0,0,1,0,1.79c-.47,1.08-4,8.57-4,8.57S163.52,72.5,162.15,74a13.57,13.57,0,0,0-1.79,2.23l.09,7,.92,3.11h1.19s10-12.36,11.89-15.83A140.32,140.32,0,0,0,180.77,57s2.47-3.12.73-5.13-10.06-9.61-12.17-11.53-12.4-9.7-12.4-9.7-1.14-9.61-3.61-12.44c0,0-1.1-1.65-2,0a32.1,32.1,0,0,0-3.75,12.44s-12.12,9-15.8,12.9-5.33,5.31-8,8.33c0,0-2.29,1.53.46,5.25a28,28,0,0,0,2,5.94,129.15,129.15,0,0,0,7.23,12.34c1.92,2.83,7.5,9.78,8.6,10.88s3.2-3,3.2-5.49A15.09,15.09,0,0,0,144.48,76.19Z" transform="translate(-56.26 -17.47)"/><path class="cls-14" d="M147,75.12s-2,6.5,2.2,10,9.24-1.37,9.24-4a25.51,25.51,0,0,0-.92-5.86s-1.83-.13-2.48-.09a21.08,21.08,0,0,1,0-2.9s3.12-.13,4.63-1.21a17.32,17.32,0,0,0,4.69-5.64A12.06,12.06,0,0,0,165,62.6s1.44,1,2.09-.19a4.37,4.37,0,0,0-.31-3.73,1.15,1.15,0,0,0-1.72.4s-.13.43-.13-.63a1.88,1.88,0,0,0-.58-1.5,35,35,0,0,1-4.22-6.07,36.62,36.62,0,0,1-2.1-4.59s-.19-1-.71.21a26.51,26.51,0,0,1-5.09,5.77c-1.26.89-7,4.68-10.54,5.58,0,0-1,.31-2,.52,0,0-.18,0-.22.31,0,0-.14.14-.46-.18s-1.45.34-1.48,1.11-.19,2.65.55,3.14,1.61-.34,1.61-.34.06,3.24,1.23,4.66,2.74,4,5.52,4.71c0,0,2.09.19,2.74.19h.34l-.06,3.11S147.54,75.07,147,75.12Z" transform="translate(-56.26 -17.47)"/><path class="cls-13" d="M151.46,147.83h20.07s-.61,5,0,6c0,0-9.85-1-14.81-.21a3.37,3.37,0,0,0-2.28,1,10.12,10.12,0,0,0-1.36,5.07c.15,2.73-.63,1.46-.63,1.46S151.21,149.5,151.46,147.83Z" transform="translate(-56.26 -17.47)"/><path class="cls-13" d="M152.64,167.82s3.57,18.6,3.24,27.57a1.3,1.3,0,0,1-1.1,1.23c-2.75.42-10.18,1.42-12.54.27,0,0-.53-1,1.85-1.32s6.12-.7,6.35-5.2c.15-3-1.06-10.48-2.12-14.53s-1.76-8-1.76-8Z" transform="translate(-56.26 -17.47)"/></g><g id="Clothes"><path class="cls-15" d="M144.37,76.07a6.82,6.82,0,0,1,2.63-.95h.3s-.7,3.66.75,5.9a5.26,5.26,0,0,0,4.4,2.28,4.15,4.15,0,0,0,4-2.33,9.22,9.22,0,0,0,1.07-5l0-.73a13,13,0,0,1,2.93.84s-.17,5.52.32,7.26a7.35,7.35,0,0,0,1.79,3A23.83,23.83,0,0,1,160,92.16c-1.63,2.65-1.72,3.76-1.76,4.31s.84,10,3.41,16.13c.3.72.56,1.46.79,2.2a22.82,22.82,0,0,1,1.11,5.21H140.7s1.35-5,2.05-7.19c.65-2,3.54-11.79,3.6-15.89,0-1.05-.16-1-.56-2a12.07,12.07,0,0,0-1.15-2.13c-1.28-1.9-2.37-3.18-2.58-6.51a5.75,5.75,0,0,0,1.65-2.3A25.29,25.29,0,0,0,144.37,76.07Z" transform="translate(-56.26 -17.47)"/><path class="cls-16" d="M163.59,120s11.75,11.46,16.48,20c.62,1.12,1.25,2.22,1.9,3.32,1,1.74,2.42,4.75,2,7.57-.68,4.29-5.64,3.8-5.64,3.8h-6.77s-1.39-4.58-.32-6.85c0,0,.46-1.09,1-1.09s.11-1.33-1.78-3.93A101.52,101.52,0,0,0,155.77,128l-3.68.05s-.91,2.09-1,6.78,0,7.18.3,12.74,1.12,12.55,1.84,18.21c0,0,.25,1.37.3,2s-8,.23-8,.23a83.75,83.75,0,0,1-3.67-12.54,153.52,153.52,0,0,1-2-19.63c-.1-6.27.79-15.87.79-15.87Z" transform="translate(-56.26 -17.47)"/></g><g id="Face-2" data-name="Face"><path class="cls-17" d="M144.42,63.58s-2.54-.06-2.54,1.24,2.23,1.3,2.23,1.3,3.3.24,3.3-1.27S144.42,63.58,144.42,63.58Z" transform="translate(-56.26 -17.47)"/><path class="cls-17" d="M160.24,63.58s-2.55-.06-2.55,1.24,2.24,1.3,2.24,1.3,3.29.24,3.29-1.27S160.24,63.58,160.24,63.58Z" transform="translate(-56.26 -17.47)"/><path class="cls-18" d="M155.44,56.43s3.81-2,6.79.12" transform="translate(-56.26 -17.47)"/><path class="cls-18" d="M148.89,56.76s-3.81-2-6.79.12" transform="translate(-56.26 -17.47)"/><path class="cls-17" d="M151.22,64.85a.51.51,0,0,0,.49.53c.52,0,1.37.11,1.41-.53S151.26,64.25,151.22,64.85Z" transform="translate(-56.26 -17.47)"/><path class="cls-19" d="M148.23,60.65s-1.33,2.61-3.59,1.45" transform="translate(-56.26 -17.47)"/><path class="cls-9" d="M142.5,59.51s3.07,3.06,6.36,1c0,0,.77-.9,0-.47S142.5,59.51,142.5,59.51Z" transform="translate(-56.26 -17.47)"/><path class="cls-19" d="M156.29,60.65s1.33,2.61,3.59,1.45" transform="translate(-56.26 -17.47)"/><path class="cls-9" d="M162.19,59.39s-3.07,3.06-6.36,1c0,0-.77-.89,0-.47S162.19,59.39,162.19,59.39Z" transform="translate(-56.26 -17.47)"/><path class="cls-20" d="M149.56,68.06s2.35,2.47,5.79,0" transform="translate(-56.26 -17.47)"/></g></g></svg>