<svg xmlns="http://www.w3.org/2000/svg" xmlns:xlink="http://www.w3.org/1999/xlink" viewBox="0 0 691.66 698.07"><defs><style>.cls-1,.cls-10,.cls-13{fill:none;}.cls-2{fill:#3bbec4;}.cls-3{fill:url(#Pokadot);}.cls-4{fill:#303c56;}.cls-5{fill:url(#linear-gradient);}.cls-6{fill:url(#linear-gradient-2);}.cls-7{fill:#22a2af;}.cls-8{fill:#ed8ec2;opacity:0.8;}.cls-9{fill:#a88240;}.cls-10{stroke:#a5853c;}.cls-10,.cls-13{stroke-linecap:round;stroke-miterlimit:10;}.cls-11{fill:#332e2d;opacity:0.7;}.cls-12{fill:#f4cee4;opacity:0.5;}.cls-13{stroke:#e5b691;}</style><pattern id="Pokadot" data-name="Pokadot" width="37.26" height="37.26" patternUnits="userSpaceOnUse" viewBox="0 0 37.26 37.26"><rect class="cls-1" width="37.26" height="37.26"/><circle class="cls-2" cx="18.63" cy="18.63" r="8.63"/></pattern><linearGradient id="linear-gradient" x1="353.84" y1="250.32" x2="353.84" y2="180" gradientUnits="userSpaceOnUse"><stop offset="0" stop-color="#ffd4aa"/><stop offset="0.17" stop-color="#e8c59e"/><stop offset="0.97" stop-color="#efcfb3"/></linearGradient><linearGradient id="linear-gradient-2" x1="631.05" y1="410.09" x2="175.24" y2="410.09" gradientUnits="userSpaceOnUse"><stop offset="0" stop-color="#ffd4aa"/><stop offset="0.29" stop-color="#e4c295"/><stop offset="0.97" stop-color="#edcba9"/></linearGradient></defs><title>flexibility_skill</title><g id="Background"><path class="cls-3" d="M29,18.66q-4.31,2.23-8.54,4.61a25.27,25.27,0,0,1,7.39,1.6l.56.21,1,.23c.18-.32.35-.64.53-.95.51-.88,1.05-1.76,1.59-2.63A8.64,8.64,0,0,0,29,18.66Z" transform="translate(-15.33 -16.89)"/><path class="cls-3" d="M24.17,24.8l-.51-.12a15.13,15.13,0,0,0-4.57-.38l-.15.44A45.63,45.63,0,0,1,24.17,24.8Z" transform="translate(-15.33 -16.89)"/><path class="cls-3" d="M30.24,29.62,31.71,29a6.2,6.2,0,0,0,.34-.94,16.72,16.72,0,0,0-1.72-1c-.66,1.12-1.31,2.25-2,3.38C29,30.12,29.62,29.88,30.24,29.62Z" transform="translate(-15.33 -16.89)"/><path class="cls-3" d="M28,26a.54.54,0,0,1-.61.64,39.29,39.29,0,0,0-6-.54c-.95,0-1.91,0-2.86.1-.08.28-.16.55-.23.83,2.18-.1,4.41.14,6.54.15a.5.5,0,0,1,0,1c-1.88,0-3.75-.16-5.63-.15l-1.16,0c-.13.57-.27,1.14-.37,1.72s-.15,1-.21,1.56l.16.17c1.64.22,3.26.51,4.88.87,1.31-.37,2.6-.81,3.89-1.27.8-1.62,1.62-3.23,2.49-4.81l-.52-.22Z" transform="translate(-15.33 -16.89)"/><path class="cls-3" d="M21.78,17.14c-.41,1-.82,2-1.21,3-.3.79-.6,1.58-.88,2.37l1-.58c2.43-1.35,4.89-2.65,7.37-3.93a8.59,8.59,0,0,0-4.27-1.14A8.4,8.4,0,0,0,21.78,17.14Z" transform="translate(-15.33 -16.89)"/><path class="cls-3" d="M18.31,23.33l.06,0c.67-1.95,1.44-3.87,2.22-5.78A8.64,8.64,0,0,0,15.33,24c.41-.13.82-.25,1.23-.35A15.16,15.16,0,0,1,18.31,23.33Z" transform="translate(-15.33 -16.89)"/><path class="cls-4" d="M123,659.24c13.81,0,548.53-10.32,548.53-10.32L707,706.71,136.76,715Z" transform="translate(-15.33 -16.89)"/></g><g id="Women"><path class="cls-5" d="M342,183s4.41,4.74,7.33,8a54,54,0,0,1,5.39,7.37s.53,1.58,4.35.5,11.69-3.4,11.69-3.4l9-3.48,28.7,6.07s-5.27,2.24-10.36,4.65A70.46,70.46,0,0,0,382.76,214c-6.45,6.63-16.94,19.47-20.76,26.1a103.4,103.4,0,0,0-5.32,10.2s-17.16-6.88-21.58-7-17.16-1.9-22.78-.49-13.11,2.48-13.11,2.48a23.48,23.48,0,0,1,3.14-10c2.93-4.8,6.4-10.19,6.82-11.1a16.56,16.56,0,0,0,2.55-10c-.4-4.75-.21-8.86-2.43-12.15a4.94,4.94,0,0,1-.59-4.32c.21-.63.53-1.06,1-.88l7.79,3.35.23.07a2.14,2.14,0,0,0,2.37-.78l0,0a19.1,19.1,0,0,0,3.3-7.87l2.25-4.54a19.25,19.25,0,0,0,1.42-2.59s1.84-3.89-.19-4.47,24.92,4.42,24.92,4.42Z" transform="translate(-15.33 -16.89)"/><path class="cls-6" d="M232.94,160.16,410,200.34a189.58,189.58,0,0,1,38,8.27c9.74,3.15,21.12,4.94,31.38,10.77,3.11,1.76,5.44,6.17,8.44,8.23a107.89,107.89,0,0,1,15.64,12.91c29.35,29.45,38.62,38.23,27.87,62.7,0,0-.29,1.41-.3,1.46a31.22,31.22,0,0,1-1.25,4.47c-.39.84.59,3.39,0,4-2.64,2.45-3.37,6.3-5.5,10.22,0,0-20,14-22.64,39.85s3.13,46.48,22.59,54.37l4.49,1.41a43.17,43.17,0,0,0-.34,7.18s.13,2.34.23,7-6.3,40.06-28.39,118.78c0,0-14.72,6.1-38,48.85S425.32,666,425.32,666a49.74,49.74,0,0,1-8.16,9.54c-5.46,5.08-2.53,16.36,2,16.53s48,0,48,0l28.87.08s4.67-3.57,2.61-6.72c0,0-1.42-1.93-5-.53s-15.9-4.28-15.9-4.28-18.59-8.05-21.59-11.2-3.48-4.37-3.48-4.37a4.35,4.35,0,0,1,.55-3.59c1.19-1.4,11.23-13.65,11.23-13.65l19.14-22.65L505,600.8l24-26.3L546.43,551s34.29-59.26,54.79-109.29,29-84.41,29.68-111.77.49-63-35.55-104.39c0,0-22.52-26.86-45-41.77-6.45-4.27-12.42-7.39-16.4-11.69a70.81,70.81,0,0,1-11.74-17s-13.09-31-44.89-24.72c0,0-22.57,7.07-38.95,18.5-1.93,1.35-4.63,2.15-6.31,3.63,0,0-38.6,3.13-58.38,4.69s-63.61,2.34-87.64-2.35c-16.72-3.26-33.79-6.15-42.62-7.6a24.88,24.88,0,0,1-15.17-8.91l-.18-.22c-5.75-7.07-12.22-7.16-12.22-7.16l-13.92-2.65a14.87,14.87,0,0,0-2.09-.24c-2.77-.13-9-.19-1.87,2.38l1.64.59,4.43,1.39c.72.18.62.14,1,.25a4.26,4.26,0,0,1,1.79.84c.88.65.78,1-3.32.1-3.73-.81-6.34-1.7-8.26-2.25a43,43,0,0,0-6.23-1.35c-4.23-.52-9.44,1.07,3,4.65,15.49,4.47,14.06,5,9.75,4.19-2.41-.43-5.92-1.44-7.23-1.82-.36-.11-.72-.2-1.08-.28-2.09-.47-9.4-2.13-12.46-3.18-3.26-1.12-8.52-.39-3.81,2.31a13.37,13.37,0,0,0,2.95,1.24l14.2,4.17,5.51,1.62a12.45,12.45,0,0,1,1.87.72c1.54.75,3.63,2-1.71,1-5.89-1.07-14.54-3.6-17.75-4.57a12.15,12.15,0,0,0-3.43-.53c-2,0-4.07.55.65,3.59,7.27,4.69,33.39,11.05,33.39,11.05s4.53.81,1.86,3.44a6,6,0,0,1-3,1.56,43.36,43.36,0,0,1-7.72.83c-5.27.09-7.51,6.36-.64,5.39,4-.56,8.47-1,11.56-1.23a26.78,26.78,0,0,0,7.51-1.72c2-.79,4.38-1.69,5.7-2.18A7.8,7.8,0,0,1,232.94,160.16Z" transform="translate(-15.33 -16.89)"/></g><g id="Clothing"><path class="cls-7" d="M432,152.55s35.37,15.12,37.81,28.28c1.76,9.49.47,15.16-3.89,18.77a28.25,28.25,0,0,1-17.45,6,105,105,0,0,1-11.7-.28s37.31,10.89,51,22.26l46.11-55.49s-10.18-16.27-20.31-32.64-35.05-12.63-45.48-9.13C458,133.75,440,146,432,152.55Z" transform="translate(-15.33 -16.89)"/><path class="cls-7" d="M531.33,303.22,630,343.34s-2.17,38.56-27.33,98c0,0-65-3.75-74.19-11.63a43.62,43.62,0,0,1-1.17-6.84s-5.68-1.21-12.33-8.43-10-10.17-14.8-22.15S496.34,367,496.34,367a60.65,60.65,0,0,1,5.44-21.61c4.71-9.65,15.18-22.89,16.5-24.53.09-.12.18-.22.28-.33l4.72-5.18c1.25-1.48,2.16-2.88,3.94-5,.56-.68,1.69-2.31,1.95-2.73A25.82,25.82,0,0,0,531.33,303.22Z" transform="translate(-15.33 -16.89)"/></g><g id="Face_and_hair" data-name="Face and hair"><path class="cls-8" d="M325.54,187.34s4.81,4.3,5.47,9.3c0,0-4-4.45-7.6-5a10,10,0,0,1,.71-2.08c.05-.11.22,0,.24-.09s-.1-.24-.07-.31A4.91,4.91,0,0,1,325.54,187.34Z" transform="translate(-15.33 -16.89)"/><path class="cls-9" d="M384.64,212.16s-3.84,5.09-3.18,10.78,1.48,13.92,1.76,17.58a150.48,150.48,0,0,1-.93,19.3c-.52,2.67-2.21,11.18-4.11,14.84s-4.76,8.89-7.69,11-8.93,6.83-14.45,8-12,2.32-15.9,1.94-11.31-.15-14.52-2.52-4.1-2.59-5.17-3.54c0,0-.35-.27-.56.61s-5.38,9.34-5.38,9.34-.72,1,.56,1.72,8.21,5.5,8.34,8.38,2.31,11,.62,16.39-9.72,29.71-9.72,29.71-12.49,37.43-13.76,46.56-3.28,17.28-3.17,27.13c.11,10,1.25,19,2.48,29.59.88,7.55,6,23.52,2.2,30.07,0,0-7.77-19.81-10.18-28.54-3-10.95-6.51-33.34-6.51-33.34s-8.09-37.55-8.93-47.84-5.29-43.69-1.49-58.11,11-22.13,15.66-24.71,15-1.63,15-1.63l8.67-9.59s-16.65-19.89-15.09-39.07v-.83l5.33-.88c.65-.11,1.29-.24,1.93-.41,1.72-.43,5.4-1.35,7.32-1.7a85,85,0,0,1,14.44-.06c2.38.35,11.3.7,14,2,1.32.63,4.84,2.1,8.07,3.44a6.8,6.8,0,0,0,8.77-3.45C362.41,237.05,369.83,224.42,384.64,212.16Z" transform="translate(-15.33 -16.89)"/><path class="cls-10" d="M309.7,233.8s5.51,4.93,18.74,2.36" transform="translate(-15.33 -16.89)"/><path class="cls-11" d="M331,231.38s-5.95-10.37-16-6.79c0,0-2.63,1.94-.33,1.29S331,231.38,331,231.38Z" transform="translate(-15.33 -16.89)"/><path class="cls-12" d="M328.13,211.41a3.11,3.11,0,0,0-1.17,4.25c1.28,2.25,4.44,5.77,11.54,5.34,6.23-.37,4.43-3.68,2-6.25a12.48,12.48,0,0,0-8.85-4.06A7.38,7.38,0,0,0,328.13,211.41Z" transform="translate(-15.33 -16.89)"/><path class="cls-13" d="M348.47,242.45s6.21,12.14,12.12-7.35" transform="translate(-15.33 -16.89)"/></g></svg>