<svg id="Layer_1" data-name="Layer 1" xmlns="http://www.w3.org/2000/svg" xmlns:xlink="http://www.w3.org/1999/xlink" viewBox="0 0 207.94 85.56"><defs><style>.cls-1{fill:url(#linear-gradient);}.cls-2{fill:url(#linear-gradient-2);}.cls-3{fill:url(#linear-gradient-3);}.cls-4{fill:url(#linear-gradient-4);}.cls-5{fill:url(#linear-gradient-5);}.cls-6{fill:url(#linear-gradient-6);}.cls-7{fill:url(#linear-gradient-7);}.cls-8{fill:url(#linear-gradient-8);}.cls-9{font-size:31.89px;}.cls-13,.cls-9{fill:#53608f;font-family:ArialRoundedMTBold, Arial Rounded MT Bold;}.cls-10{letter-spacing:-0.05em;}.cls-11{letter-spacing:0.01em;}.cls-12{letter-spacing:0em;}.cls-13{font-size:12.02px;}.cls-14{letter-spacing:-0.06em;}.cls-15{letter-spacing:-0.02em;}</style><linearGradient id="linear-gradient" x1="82.84" y1="85.88" x2="82.84" y2="51.44" gradientUnits="userSpaceOnUse"><stop offset="0" stop-color="#6f80bf"/><stop offset="1" stop-color="#8dc7e0"/></linearGradient><linearGradient id="linear-gradient-2" x1="104.66" y1="93.29" x2="104.66" y2="73" xlink:href="#linear-gradient"/><linearGradient id="linear-gradient-3" x1="110.89" y1="131.94" x2="110.89" y2="85.92" xlink:href="#linear-gradient"/><linearGradient id="linear-gradient-4" x1="82.51" y1="116.21" x2="82.51" y2="67.12" xlink:href="#linear-gradient"/><linearGradient id="linear-gradient-5" x1="53.77" y1="130.95" x2="53.77" y2="85.79" xlink:href="#linear-gradient"/><linearGradient id="linear-gradient-6" x1="115.36" y1="136.95" x2="115.36" y2="104.27" xlink:href="#linear-gradient"/><linearGradient id="linear-gradient-7" x1="50.25" y1="137" x2="50.25" y2="104" xlink:href="#linear-gradient"/><linearGradient id="linear-gradient-8" x1="60.63" y1="93.09" x2="60.63" y2="73" xlink:href="#linear-gradient"/></defs><title>flow_logo</title><path class="cls-1" d="M70.93,83.52C78.51,74.44,81.8,67.2,82.46,65.65c.06-.13.06-.15.07-.15h0a.52.52,0,0,0,0,.13c.66,1.56,4,8.79,11.53,17.86.67.81,1.29,1.6,1.87,2.39-.14-17.29-13.46-34.44-13.46-34.44C70.08,67.84,69.59,81.46,69.71,85,70.1,84.53,70.5,84,70.93,83.52Z" transform="translate(-22.7 -51.44)"/><path class="cls-2" d="M100.31,93.29h0a35.52,35.52,0,0,1,11.58-5.51c0-9.41-2.77-14.78-2.77-14.78C97.78,76.17,97.34,85.44,97.45,88A39.8,39.8,0,0,1,100.31,93.29Z" transform="translate(-22.7 -51.44)"/><path class="cls-3" d="M103.23,105.14c.13,2.22.7,16.27-7.37,24.14-1.06,1-2.07,1.9-3,2.66a46.36,46.36,0,0,0,23.56-12.43C128.09,107.75,128.94,86,128.94,86c-13.33-.77-25.71,7.79-27.81,9.32A31.7,31.7,0,0,1,103.23,105.14Z" transform="translate(-22.7 -51.44)"/><path class="cls-4" d="M92.37,113.18c2.68-2.77,4.15-9.92,3.22-15S87.74,84.21,85,78.92c-1.78-3.45-2.32-9-2.48-11.8-.16,2.82-.69,8.37-2.48,11.82-2.74,5.29-9.65,14.47-10.59,19.28-1,5,.54,12.21,3.22,15s4.69,3.89,6.57,2.22.53-5.27-2.28-9c-1.9-2.53-1.3-6.69-.71-9.14a7,7,0,0,1,3.37-4.51,5.26,5.26,0,0,1,2.83-.68v0a5.25,5.25,0,0,1,3,.67,7,7,0,0,1,3.37,4.52c.59,2.45,1.19,6.61-.71,9.13-2.81,3.75-4.15,7.36-2.28,9S89.69,116,92.37,113.18Z" transform="translate(-22.7 -51.44)"/><path class="cls-5" d="M52,121.5c5.61,4.93,14.27,8,19,9.45-.58-.51-1.19-1-1.81-1.65-8.15-7.79-7.51-21.92-7.38-24.14a32.14,32.14,0,0,1,2.42-10.67l-.28.63C45.61,83.76,36.54,86,36.54,86A46.31,46.31,0,0,0,52,121.5Z" transform="translate(-22.7 -51.44)"/><path class="cls-6" d="M127.89,104.28c-7.66,26.63-33,29.15-37.46,29.39a23.72,23.72,0,0,1-3,1.64l1.28,0c15.91,4.11,25.52,0,36.92-6s17.64-22.1,17.64-22.1C137,104,127.89,104.28,127.89,104.28Z" transform="translate(-22.7 -51.44)"/><path class="cls-7" d="M73.69,133.05c-6.13-1.08-30.4-6.26-36.3-29-4.4-.57-14.69,3.17-14.69,3.17,5.67,13.44,10.52,17.73,22.74,25.42s31.16,2.81,31.16,2.81h1.21A25.08,25.08,0,0,1,73.69,133.05Z" transform="translate(-22.7 -51.44)"/><path class="cls-8" d="M67.83,87.68C67.73,74.12,56.2,73,56.2,73a51.25,51.25,0,0,0-2.76,14.78c4.31.8,11.12,5.14,11.39,5.31A41.1,41.1,0,0,1,67.83,87.68Z" transform="translate(-22.7 -51.44)"/><text class="cls-9" transform="translate(109.05 49.12) scale(1.07 1)">F<tspan class="cls-10" x="19.26" y="0">L</tspan><tspan class="cls-11" x="36.94" y="0">O</tspan><tspan class="cls-12" x="62.59" y="0">W</tspan></text><text class="cls-13" transform="translate(124.42 64.78) scale(1.17 1)"><tspan class="cls-14">Y</tspan><tspan x="6.76" y="0">o</tspan><tspan class="cls-15" x="14.02" y="0">g</tspan><tspan x="21.23" y="0">a Studio</tspan></text></svg>