<svg xmlns="http://www.w3.org/2000/svg" viewBox="0 0 156.73 144.27"><defs><style>.cls-1{fill:#303c56;}.cls-2{fill:#3e6e9e;}.cls-3{fill:#f6b176;}.cls-4{fill:#adaf4a;}.cls-5{fill:#5c443c;}.cls-6{fill:#332e2d;}.cls-7{fill:#f4e6dc;}.cls-8{fill:#ea9c71;}.cls-9{fill:none;stroke:#e29969;stroke-linecap:round;stroke-miterlimit:10;}</style></defs><title>meditation_relaxation</title><g id="blanket"><polygon class="cls-1" points="11.13 126.16 144.67 126.16 156.73 144.27 0 144.27 11.13 126.16"/></g><g id="Pants"><path class="cls-2" d="M111.31,149.44l39.67.85a.6.6,0,0,1,.38.17,40.84,40.84,0,0,0,15.24,9.44c6.86,2.26,17,8.82,21.8,12.11a9.7,9.7,0,0,1,4.29,7.67c.08,2.4-.8,4.75-4.3,5.26-6.57,1-41.93-6.07-51.7-8.06a13.77,13.77,0,0,0-5-.06L110,180.66s-20.93,4.39-33.71,4.46a6.2,6.2,0,0,1-6.15-4.79A5.44,5.44,0,0,1,72,175.05c4.87-4.67,18.1-12.67,32-17.74a10.71,10.71,0,0,0,6.83-7.45A.56.56,0,0,1,111.31,149.44Z" transform="translate(-52.81 -48.89)"/></g><g id="Skin"><path class="cls-3" d="M118.2,54.74a.9.9,0,0,1,.2-.14c.86-.42,6.36-3,9.51-2.31,3.42.79,9.75,1.45,10,2.37s1.71,1.71,2,2.9a15.07,15.07,0,0,1,.79,4.21V64.6c0,.43,0,1.21.35,1.15h0c.25,0,.36-.21.53-.39A1.68,1.68,0,0,1,142,65c.33-.2,1.59-.74,1.47,1.25a9.42,9.42,0,0,1-2.39,5.42c-.7.59-3.39,5.68-4,6.78a.87.87,0,0,0-.1.45l.25,8.06v9.75s-.26.66.93,1.19c.66.29,4.47-.16,8.44,0,3.08.13,5.81.32,8.36,2,4.59,3.08,6,2.85,14.53,32.53a.85.85,0,0,0,.06.17c.36.7,3,6.26-5.31,6.38-8.82.14-22.26,0-22.26,0l-9.55-.19S130,139.06,130,137s-.29-16.08-.43-20.17c0-.28.87-.36,1-.11,1.08,2,3.41,6.55,3.41,7.56v8.07a.9.9,0,0,0,1.11.88l15.12-3.66.21,0h5.71a.62.62,0,0,1,.19,0c.24,0,1,.14.32-1.21a12.09,12.09,0,0,0-1.28-1.84,40.4,40.4,0,0,1-5.06-8.26c-.22-.49-.88-2-1-2.27-2-3-6.25-4.29-6.25-8.74,0-5.7-18,1.78-19.37,2.37l-.15.08-13.89,9.47a1.36,1.36,0,0,0-.24.24l-6.09,9s-1.06,1.32.79,1.19c1.58-.12,16.58,2.79,20.76,3.61.56.11.64-.36.64-.93l.16-7a5.46,5.46,0,0,1,.34-.74l2.93-7.79c.08-.21.66-.13.66.1L130,137.3s-.68,1.42-3.15,1.46l-25.58.28H93.88c-.45,0-5.34-.54-3.91-6.37,1.5-6.1,7.69-32.71,18.18-34.3h.11l12-.55a.86.86,0,0,1,.23,0c.29.07,1.19.11,1.42-2.23a71.4,71.4,0,0,0-.36-9.48.91.91,0,0,0-.09-.31l-6-12.31a.56.56,0,0,1,0-.08l-2.51-4a4.47,4.47,0,0,1-.7-2.77c.09-1,.55-1.85,2.1-.91l.37-5.67a.69.69,0,0,1,0-.24l.93-2.64a.91.91,0,0,1,.24-.37Z" transform="translate(-52.81 -48.89)"/><path class="cls-3" d="M135.9,167.12s-.25,6,3.72,7.93a59.56,59.56,0,0,0,15.49-3.41c6.88-2.79,8.18-3.47,8.18-3.47a47.51,47.51,0,0,1,12.27-1.42s1.05-.07-.5-1.24c-.87-.67-1.84-1.31-2.52-1.75a4.77,4.77,0,0,0-2.19-.74,12.38,12.38,0,0,0-4.95.57,17.35,17.35,0,0,1-11.09-.62c-3-1.31-7.56-2.79-7.56-2.79s-4.22-1-5.52.74S139.31,165.26,135.9,167.12Z" transform="translate(-52.81 -48.89)"/><path class="cls-3" d="M128.63,167.91a6.28,6.28,0,0,1-3.5-2.76c-1.66-2.39-3.43-7.91-9-5.7s-8.22,3.84-12.58,4A56.64,56.64,0,0,1,95.2,163a7.35,7.35,0,0,0-5.52,1.71,26.07,26.07,0,0,0-3,2.7Z" transform="translate(-52.81 -48.89)"/></g><g id="Shirt"><path class="cls-4" d="M120.5,97.83l-11.17.48a38.32,38.32,0,0,1,2,10.88c.11,3.92-.24,5.56-1.82,10l.56,8.48.15,2.77,15.43,2.87a.25.25,0,0,0,.28-.24v-7a6.84,6.84,0,0,1,.55-2.71l2.71-6.44c.08-.21.39-.33.39-.1L130,137.3a2.69,2.69,0,0,1-2.59,1.2c-2.08,0-16.69.32-16.69.32s.66,9.36.17,10.61c0,0,3.86,8.46,19.11,8.46,0,0,12.64.88,21.23-7.59A41.36,41.36,0,0,1,150,139l-17.31-.57h-.45c-.56,0-2.22-.43-2.22-1.17,0-1.91-.26-16.45-.38-20.5,0-.25.28-.21.38,0l3.51,6.52a3.9,3.9,0,0,1,.48,1.89v7.59a.49.49,0,0,0,.61.48l15.73-3.8s-.91-10.35-.5-12.4a52.44,52.44,0,0,1-2.3-10.78,34.07,34.07,0,0,1,.38-8.39c0-.18-9.7-.05-9.7-.05a13.57,13.57,0,0,1-7,7C126.08,106.89,123.47,103.47,120.5,97.83Z" transform="translate(-52.81 -48.89)"/></g><g id="Face"><path class="cls-5" d="M115.09,55.91a12.55,12.55,0,0,1,11.5-7c8.64-.13,13,4.19,13.91,7.83v3.52s-.14-5-11.62-4.87c-2.9,0-5,0-5.91,0a6.13,6.13,0,0,0-1.7.2,9.46,9.46,0,0,0-6,4.66S114.51,57.46,115.09,55.91Z" transform="translate(-52.81 -48.89)"/><path class="cls-5" d="M140.34,56.3c-.15-.51.91,1.52.91,7.28a99.53,99.53,0,0,1-.75,13.74c-.51,3.61.06,9.05-6.78,11.39A14.28,14.28,0,0,1,121.38,87a13.52,13.52,0,0,1-6-9.82c-.47-5.83-2.79-12.09-.88-19.18.3-1.12.56-2.07.56-2.1s.29,2.86.32,3.21a2.84,2.84,0,0,1,.13.38c-.65,1.13-1.2,8.68.39,13.13,1.13,3.18,2.86,4.48,4.19,4.69a8.94,8.94,0,0,0,2.29-.34c1.31-.48,5.25-2.54,10-.66a7.07,7.07,0,0,0,2,.5,5.9,5.9,0,0,0,4.78-2.58,5.51,5.51,0,0,0,1-3l.4-10.8a2.81,2.81,0,0,0,0-.41Z" transform="translate(-52.81 -48.89)"/><path class="cls-5" d="M117.63,66.09a11,11,0,0,1,7.37-.56s2.17-1-.34-1.5-6.25-.17-7.42,1.39S117.63,66.09,117.63,66.09Z" transform="translate(-52.81 -48.89)"/><path class="cls-5" d="M138.05,66.12a11.48,11.48,0,0,0-7.67-.57s-2.26-1,.35-1.56,6.51-.17,7.73,1.44S138.05,66.12,138.05,66.12Z" transform="translate(-52.81 -48.89)"/><path class="cls-6" d="M118,68.32s3.13,3.24,6.48,1c0,0,.78-1,0-.5S118,68.32,118,68.32Z" transform="translate(-52.81 -48.89)"/><path class="cls-6" d="M137.87,68.32s-3.23,3.22-6.69,1c0,0-.81-.94,0-.5S137.87,68.32,137.87,68.32Z" transform="translate(-52.81 -48.89)"/><path class="cls-7" d="M123.75,78.16a11.93,11.93,0,0,1,8.74,0,.11.11,0,0,1,0,.2c-.57.44-2.58,1.9-4.11,1.9-1.76,0-2.33-.07-4.68-1.89A.13.13,0,0,1,123.75,78.16Z" transform="translate(-52.81 -48.89)"/><path class="cls-8" d="M136.18,72.18a3.63,3.63,0,0,0-2.47.2c-.49.22-1,.56-1,1.05-.12.79,1.11,1.07,1.81,1.16a3.85,3.85,0,0,0,1,0c.74-.09,2.05-.39,2.05-1.27C137.5,72.68,136.83,72.35,136.18,72.18Z" transform="translate(-52.81 -48.89)"/><path class="cls-8" d="M122.48,72.5a3.82,3.82,0,0,0-2.58.21,1.67,1.67,0,0,0-1.09,1.11c-.13.83,1.16,1.12,1.9,1.21a3.42,3.42,0,0,0,1,0c.77-.09,2.16-.4,2.16-1.34C123.88,73,123.17,72.68,122.48,72.5Z" transform="translate(-52.81 -48.89)"/><path class="cls-9" d="M130.45,74.94a4.51,4.51,0,0,1-3.54.46,2.93,2.93,0,0,1-1-.46" transform="translate(-52.81 -48.89)"/></g></svg>